<?xml version="1.0" encoding="utf-8"?>
<!-- Generator: Adobe Illustrator 25.2.0, SVG Export Plug-In . SVG Version: 6.00 Build 0)  -->
<svg version="1.1" id="レイヤー_1" xmlns="http://www.w3.org/2000/svg" xmlns:xlink="http://www.w3.org/1999/xlink" x="0px"
	 y="0px" viewBox="0 0 244.8 36.63" style="enable-background:new 0 0 244.8 36.63;" xml:space="preserve">
<style type="text/css">
	.st0{fill:#192C56;}
</style>
<g>
	<path class="st0" d="M210.97,3.39c2.85-0.04,4.29,1.13,4.29,3.26c0,0.57-0.1,1.2-0.31,1.88c-2.43,8.62-11.09,22.67-18.9,27.2
		c-0.41,0.21-0.79,0.32-1.13,0.32c-1.13,0-1.95-0.96-1.95-2.02c0-0.67,0.38-1.42,1.2-1.91c6.82-4.14,14.58-17.24,16.67-23.97
		c0.07-0.18,0.1-0.35,0.1-0.5c0-0.39-0.27-0.57-0.93-0.57l-7.68,0.07c-1.59,3.09-5.08,7.07-7.04,8.88c-0.51,0.5-1.06,0.67-1.58,0.67
		c-1.03,0-1.92-0.81-1.92-1.88c0-0.53,0.27-1.13,0.86-1.7c1.62-1.52,4.66-4.97,6.02-7.49c1.01-1.89,1.86-2.16,3.56-2.16L210.97,3.39
		z"/>
	<path class="st0" d="M21.67,13.49c3.46-0.04,5.08,1.43,5.08,3.72c0,0.64-0.11,1.35-0.38,2.14c-2.33,6.96-8.46,12.53-15.84,15.42
		c-0.34,0.11-0.64,0.19-0.94,0.19c-1.28,0-2.18-1.09-2.18-2.18c0-0.79,0.45-1.58,1.54-2.03c6.58-2.63,11.13-6.88,13.01-11.85
		c0.11-0.3,0.19-0.56,0.19-0.75c0-0.45-0.38-0.64-1.2-0.64L1.92,17.74C0.64,17.78,0,16.73,0,15.71c0-1.02,0.6-2.03,1.84-2.03
		L21.67,13.49z M21.97,5.29c1.24,0,1.88,1.02,1.88,2.03s-0.64,2.03-1.88,2.03H5.57c-1.2,0-1.84-1.02-1.84-2.03s0.64-2.03,1.84-2.03
		H21.97z"/>
	<path class="st0" d="M48.59,17.33c-3.12,2.48-6.39,4.63-9.52,6.32c-0.45,0.26-0.9,0.34-1.32,0.34c-1.2,0-2.07-1.02-2.07-2.11
		c0-0.75,0.41-1.58,1.43-2.11c6.81-3.57,13.69-9.37,18.28-15.42c0.53-0.68,1.2-0.98,1.88-0.98c1.17,0,2.29,0.9,2.29,2.11
		c0,0.41-0.15,0.9-0.53,1.39c-2.22,2.9-4.97,5.76-7.97,8.39c1.02,0.08,1.96,0.75,1.96,1.96v16.51c0,1.32-1.09,1.96-2.22,1.96
		c-1.09,0-2.22-0.64-2.22-1.96V17.33z"/>
	<path class="st0" d="M135.02,14.08c0-1.4-0.57-1.78-2.42-1.78h-16.82c-1.25,0-1.89-1.06-1.89-2.12s0.64-2.12,1.89-2.12h17.65
		c4.32,0,5.99,1.67,5.99,5.08v15.33c0,3.41-1.67,5.08-5.99,5.08h-18.11c-1.25,0-1.89-1.06-1.89-2.12c0-1.06,0.64-2.12,1.89-2.12
		h17.27c1.86,0,2.42-0.38,2.42-1.78V14.08z"/>
	<path class="st0" d="M164.39,22.52c-3.23,2.13-6.77,3.9-10.23,5.24c-0.3,0.12-0.6,0.16-0.87,0.16c-1.13,0-1.92-1.02-1.92-2.05
		c0-0.79,0.41-1.62,1.47-2.01c6.88-2.6,13.13-6.82,16.74-10.76c0.19-0.2,0.26-0.39,0.26-0.51c0-0.2-0.23-0.31-0.68-0.31l-13.28,0.2
		c-1.24,0.04-1.88-1.02-1.88-2.09c0-1.02,0.6-2.09,1.84-2.09l15.23-0.16c2.6-0.04,4.06,1.26,4.06,3.03c0,0.91-0.38,1.93-1.24,3
		c-1.54,1.89-3.35,3.66-5.34,5.32v15.25c0,1.26-1.05,1.89-2.14,1.89c-1.05,0-2.14-0.63-2.14-1.89v-6.82L164.39,22.52z M161.61,2.06
		c0-1.03,2.01-2.06,3.17-2.06c0.4,0,0.84,0.11,1.28,0.42c1.02,0.69,1.17,1.64,2.44,2.83c0.51,0.5,0.73,1.07,0.73,1.61
		c0,1.15-1.02,2.22-2.12,2.22c-0.44,0-0.91-0.19-1.31-0.57c-1.31-1.22-2.26-2.06-3.39-2.9C161.87,3.17,161.61,2.64,161.61,2.06z
		 M180.79,23.9c0.64,0.55,0.9,1.22,0.9,1.85c0,1.1-0.87,2.13-1.99,2.13c-0.45,0-0.98-0.16-1.47-0.59c-1.88-1.62-4.36-3.39-6.43-4.57
		c-0.75-0.43-1.05-1.1-1.05-1.73c0-1.06,0.83-2.05,1.96-2.05c0.34,0,0.68,0.08,1.02,0.24C175.87,20.23,178.69,22.05,180.79,23.9z"/>
	<path class="st0" d="M232.95,16.21c0.38-0.68,1.05-1.17,1.84-1.17c0.34,0,0.64,0.08,0.98,0.23c2.33,1.05,5.6,2.97,7.97,4.81
		c0.75,0.56,1.05,1.28,1.05,1.96c0,1.2-0.94,2.22-2.14,2.22c-0.49,0-1.05-0.15-1.58-0.56c-2.18-1.66-5.38-3.61-7.03-4.51
		c-0.53-0.3-0.87-0.64-1.09-1.05v16.04c0,1.32-1.09,1.96-2.22,1.96c-1.09,0-2.22-0.64-2.22-1.96V4.8c0-1.32,1.13-1.99,2.22-1.99
		c1.13,0,2.22,0.68,2.22,1.99V16.21z"/>
	<g>
		<path class="st0" d="M90.69,7.81c3.95-0.04,5.49,1.39,5.49,3.91c0,0.64-0.08,1.35-0.26,2.14c-2.07,8.91-8.61,16.59-17.49,20.91
			c-0.45,0.23-0.87,0.3-1.24,0.3c-1.28,0-2.18-1.05-2.18-2.22c0-0.71,0.38-1.5,1.32-1.99c8.31-4.33,13.01-10.34,14.97-17.08
			c0.08-0.3,0.11-0.53,0.11-0.75c0-0.71-0.49-0.98-1.58-0.98L71.7,12.29c-1.43,0.04-2.18-1.13-2.18-2.22c0-1.02,0.68-2.07,1.99-2.07
			L90.69,7.81z"/>
		<path class="st0" d="M95.56,5.01c0-0.74,0.74-1.38,1.56-1.38c0.37,0,0.78,0.15,1.12,0.52c0.93,1,1.93,2.31,2.6,3.5
			c0.19,0.3,0.26,0.59,0.26,0.89c0,0.86-0.74,1.49-1.53,1.49c-0.48,0-0.97-0.26-1.26-0.82c-0.78-1.3-1.67-2.46-2.46-3.39
			C95.63,5.57,95.56,5.27,95.56,5.01z"/>
		<path class="st0" d="M99.17,2.57c0-0.74,0.74-1.3,1.53-1.3c0.41,0,0.86,0.15,1.23,0.52c0.89,0.93,1.9,2.16,2.57,3.31
			c0.22,0.37,0.33,0.71,0.33,1c0,0.86-0.71,1.45-1.49,1.45c-0.48,0-1-0.26-1.38-0.82c-0.74-1.15-1.67-2.38-2.46-3.35
			C99.28,3.13,99.17,2.83,99.17,2.57z"/>
	</g>
</g>
</svg>
